<?xml version="1.0" encoding="UTF-8" standalone="no"?>
<!-- Created with Inkscape (http://www.inkscape.org/) -->

<svg
   xmlns:dc="http://purl.org/dc/elements/1.1/"
   xmlns:cc="http://creativecommons.org/ns#"
   xmlns:rdf="http://www.w3.org/1999/02/22-rdf-syntax-ns#"
   xmlns:svg="http://www.w3.org/2000/svg"
   xmlns="http://www.w3.org/2000/svg"
   xmlns:sodipodi="http://sodipodi.sourceforge.net/DTD/sodipodi-0.dtd"
   xmlns:inkscape="http://www.inkscape.org/namespaces/inkscape"
   width="32px"
   height="32px"
   id="svg3214"
   version="1.1"
   inkscape:version="0.48.2 r9819"
   sodipodi:docname="user-white.svg">
  <defs
     id="defs3216" />
  <sodipodi:namedview
     id="base"
     pagecolor="#ffffff"
     bordercolor="#666666"
     borderopacity="1.0"
     inkscape:pageopacity="0.0"
     inkscape:pageshadow="2"
     inkscape:zoom="11.197802"
     inkscape:cx="16.931698"
     inkscape:cy="16"
     inkscape:current-layer="layer1"
     showgrid="true"
     inkscape:grid-bbox="true"
     inkscape:document-units="px"
     inkscape:window-width="1265"
     inkscape:window-height="624"
     inkscape:window-x="20"
     inkscape:window-y="20"
     inkscape:window-maximized="0" />
  <metadata
     id="metadata3219">
    <rdf:RDF>
      <cc:Work
         rdf:about="">
        <dc:format>image/svg+xml</dc:format>
        <dc:type
           rdf:resource="http://purl.org/dc/dcmitype/StillImage" />
      </cc:Work>
    </rdf:RDF>
  </metadata>
  <g
     id="layer1"
     inkscape:label="Layer 1"
     inkscape:groupmode="layer">
    <g
       id="g4083"
       transform="translate(-25.3474,-2.1579982)">
      <g
         transform="matrix(0.0068635,0,0,-0.00663515,30.996895,27.505005)"
         id="g6"
         style="fill:none;stroke:#ffffff;stroke-width:296.36849976;stroke-miterlimit:4;stroke-opacity:1;stroke-dasharray:none">
        <path
           d="m 3003,0 -7,232 c -8,248 -12,266 -64,315 -34,32 -96,63 -192,97 -41,15 -185,74 -320,131 -135,57 -274,112 -310,121 -36,10 -75,26 -87,37 -13,11 -43,59 -68,107 -43,84 -46,88 -85,94 -22,3 -40,10 -40,15 0,22 22,64 51,101 26,32 32,51 40,117 14,125 16,130 74,173 67,49 85,96 92,236 5,96 4,105 -22,160 l -28,59 9,160 c 11,207 8,266 -16,345 -26,87 -62,128 -121,139 -28,5 -66,23 -100,48 -30,22 -81,50 -114,63 -70,25 -201,34 -285,19 -64,-11 -247,-72 -304,-101 -98,-50 -173,-156 -196,-278 -15,-77 -12,-204 6,-310 16,-92 16,-95 -5,-146 -20,-48 -21,-59 -12,-150 18,-170 47,-239 106,-250 41,-7 40,-5 54,-157 8,-96 13,-111 39,-145 28,-35 52,-75 52,-86 0,-2 -13,-7 -30,-11 -25,-6 -37,-20 -75,-94 C 1020,993 990,944 977,933 965,922 926,906 890,896 854,887 715,832 580,775 445,718 301,659 260,644 164,610 102,579 68,547 16,498 12,480 4,232 L -3,0"
           id="path8"
           style="fill:none;stroke:#ffffff;stroke-width:296.36849976;stroke-miterlimit:4;stroke-opacity:1;stroke-dasharray:none"
           inkscape:connector-curvature="0"
           sodipodi:nodetypes="ccccsccccsccccccccccccccccccccsccccscccc" />
      </g>
      <path
         sodipodi:type="arc"
         style="opacity:0.98000004;fill:none;stroke:#ffffff;stroke-width:3.74981236;stroke-linecap:round;stroke-linejoin:round;stroke-miterlimit:4;stroke-opacity:1;stroke-dasharray:none;stroke-dashoffset:0"
         id="path3757"
         sodipodi:cx="169.5"
         sodipodi:cy="185"
         sodipodi:rx="26.5"
         sodipodi:ry="26"
         d="m 196,185 c 0,14.3594 -11.86445,26 -26.5,26 -14.63555,0 -26.5,-11.6406 -26.5,-26 0,-14.3594 11.86445,-26 26.5,-26 14.63555,0 26.5,11.6406 26.5,26 z"
         transform="matrix(0.52830435,0,0,0.53846405,-48.200187,-81.457851)" />
    </g>
  </g>
</svg>
