<?xml version="1.0" encoding="UTF-8" standalone="no"?>
<!-- Created with Inkscape (http://www.inkscape.org/) -->

<svg
   xmlns:dc="http://purl.org/dc/elements/1.1/"
   xmlns:cc="http://creativecommons.org/ns#"
   xmlns:rdf="http://www.w3.org/1999/02/22-rdf-syntax-ns#"
   xmlns:svg="http://www.w3.org/2000/svg"
   xmlns="http://www.w3.org/2000/svg"
   xmlns:sodipodi="http://sodipodi.sourceforge.net/DTD/sodipodi-0.dtd"
   xmlns:inkscape="http://www.inkscape.org/namespaces/inkscape"
   width="32px"
   height="32px"
   id="svg3087"
   version="1.1"
   inkscape:version="0.48.2 r9819"
   sodipodi:docname="share.svg">
  <defs
     id="defs3089" />
  <sodipodi:namedview
     id="base"
     pagecolor="#ffffff"
     bordercolor="#666666"
     borderopacity="1.0"
     inkscape:pageopacity="0.0"
     inkscape:pageshadow="2"
     inkscape:zoom="11.197802"
     inkscape:cx="4.7924434"
     inkscape:cy="16"
     inkscape:current-layer="g4649"
     showgrid="true"
     inkscape:grid-bbox="true"
     inkscape:document-units="px"
     inkscape:window-width="1014"
     inkscape:window-height="632"
     inkscape:window-x="20"
     inkscape:window-y="20"
     inkscape:window-maximized="0" />
  <metadata
     id="metadata3092">
    <rdf:RDF>
      <cc:Work
         rdf:about="">
        <dc:format>image/svg+xml</dc:format>
        <dc:type
           rdf:resource="http://purl.org/dc/dcmitype/StillImage" />
        <dc:title></dc:title>
      </cc:Work>
    </rdf:RDF>
  </metadata>
  <g
     id="layer1"
     inkscape:label="Layer 1"
     inkscape:groupmode="layer">
    <g
       id="g4649"
       transform="matrix(0.9765625,0,0,0.97014922,-631.10825,-22.969011)">
      <path
         transform="matrix(0.72727273,0,0,0.71111111,183.19091,13.232408)"
         d="m 688.75,37.237183 c 0,3.106601 -2.46243,5.625 -5.5,5.625 -3.03757,0 -5.5,-2.518399 -5.5,-5.625 0,-3.106602 2.46243,-5.625 5.5,-5.625 3.03757,0 5.5,2.518398 5.5,5.625 z"
         sodipodi:ry="5.625"
         sodipodi:rx="5.5"
         sodipodi:cy="37.237183"
         sodipodi:cx="683.25"
         id="path4641"
         style="fill:#ffffff;fill-opacity:1;fill-rule:nonzero;stroke:none"
         sodipodi:type="arc" />
      <path
         sodipodi:type="arc"
         style="fill:#ffffff;fill-opacity:1;fill-rule:nonzero;stroke:none"
         id="path4643"
         sodipodi:cx="683.25"
         sodipodi:cy="37.237183"
         sodipodi:rx="5.5"
         sodipodi:ry="5.625"
         d="m 688.75,37.237183 c 0,3.106601 -2.46243,5.625 -5.5,5.625 -3.03757,0 -5.5,-2.518399 -5.5,-5.625 0,-3.106602 2.46243,-5.625 5.5,-5.625 3.03757,0 5.5,2.518398 5.5,5.625 z"
         transform="matrix(0.72727273,0,0,0.71111111,166.79091,26.432409)" />
      <path
         transform="matrix(0.72727273,0,0,0.71111111,184.39091,32.032409)"
         d="m 688.75,37.237183 c 0,3.106601 -2.46243,5.625 -5.5,5.625 -3.03757,0 -5.5,-2.518399 -5.5,-5.625 0,-3.106602 2.46243,-5.625 5.5,-5.625 3.03757,0 5.5,2.518398 5.5,5.625 z"
         sodipodi:ry="5.625"
         sodipodi:rx="5.5"
         sodipodi:cy="37.237183"
         sodipodi:cx="683.25"
         id="path4645"
         style="fill:#ffffff;fill-opacity:1;fill-rule:nonzero;stroke:none"
         sodipodi:type="arc" />
      <g
         transform="matrix(1.024,0,0,1.0307693,22.131439,-8.6514253)"
         id="g4666">
        <path
           transform="matrix(0.90909089,0,0,0.83333334,56.000014,8.02703)"
           d="m 624.80002,42.162182 c 0,3.313708 -1.96994,6 -4.4,6 -2.43005,0 -4.4,-2.686292 -4.4,-6 0,-3.313709 1.96995,-6 4.4,-6 2.43006,0 4.4,2.686291 4.4,6 z"
           sodipodi:ry="6"
           sodipodi:rx="4.4000001"
           sodipodi:cy="42.162182"
           sodipodi:cx="620.40002"
           id="path4657"
           style="fill:#ffffff;fill-opacity:1;fill-rule:nonzero;stroke:#ffffff;stroke-width:2.29782486;stroke-linecap:round;stroke-linejoin:round;stroke-miterlimit:4;stroke-opacity:1;stroke-dasharray:none;stroke-dashoffset:0"
           sodipodi:type="arc" />
        <path
           sodipodi:nodetypes="sssssssss"
           inkscape:connector-curvature="0"
           id="rect4659"
           d="m 615.5,48.362183 9,0 c 1.662,0 2.86198,1.343741 3,3 l 0.5,6 c 0.13802,1.656259 -1.338,3 -3,3 l -10,0 c -1.662,0 -3.13802,-1.343741 -3,-3 l 0.5,-6 c 0.13802,-1.656259 1.338,-3 3,-3 z"
           style="fill:none;stroke:#ffffff;stroke-width:2;stroke-linecap:round;stroke-linejoin:round;stroke-miterlimit:4;stroke-opacity:1;stroke-dashoffset:0" />
        <path
           sodipodi:nodetypes="cc"
           inkscape:connector-curvature="0"
           id="path4662"
           d="m 629,39.362183 10,0"
           style="fill:none;stroke:#ffffff;stroke-width:2;stroke-linecap:butt;stroke-linejoin:miter;stroke-miterlimit:4;stroke-opacity:1;stroke-dasharray:none" />
        <path
           style="fill:none;stroke:#ffffff;stroke-width:2;stroke-linecap:butt;stroke-linejoin:miter;stroke-miterlimit:4;stroke-opacity:1;stroke-dasharray:none"
           d="m 634,44.362183 0,-10"
           id="path4664"
           inkscape:connector-curvature="0"
           sodipodi:nodetypes="cc" />
      </g>
    </g>
  </g>
</svg>
