<?xml version="1.0" encoding="UTF-8" standalone="no"?>
<!-- Created with Inkscape (http://www.inkscape.org/) -->

<svg
   xmlns:dc="http://purl.org/dc/elements/1.1/"
   xmlns:cc="http://creativecommons.org/ns#"
   xmlns:rdf="http://www.w3.org/1999/02/22-rdf-syntax-ns#"
   xmlns:svg="http://www.w3.org/2000/svg"
   xmlns="http://www.w3.org/2000/svg"
   xmlns:sodipodi="http://sodipodi.sourceforge.net/DTD/sodipodi-0.dtd"
   xmlns:inkscape="http://www.inkscape.org/namespaces/inkscape"
   width="64px"
   height="64px"
   id="svg4649"
   version="1.1"
   inkscape:version="0.48.2 r9819"
   sodipodi:docname="New document 10">
  <defs
     id="defs4651" />
  <sodipodi:namedview
     id="base"
     pagecolor="#ffffff"
     bordercolor="#666666"
     borderopacity="1.0"
     inkscape:pageopacity="0.0"
     inkscape:pageshadow="2"
     inkscape:zoom="5.5"
     inkscape:cx="14.181818"
     inkscape:cy="32"
     inkscape:current-layer="layer1"
     showgrid="true"
     inkscape:document-units="px"
     inkscape:grid-bbox="true"
     inkscape:window-width="729"
     inkscape:window-height="614"
     inkscape:window-x="466"
     inkscape:window-y="40"
     inkscape:window-maximized="0" />
  <metadata
     id="metadata4654">
    <rdf:RDF>
      <cc:Work
         rdf:about="">
        <dc:format>image/svg+xml</dc:format>
        <dc:type
           rdf:resource="http://purl.org/dc/dcmitype/StillImage" />
        <dc:title></dc:title>
      </cc:Work>
    </rdf:RDF>
  </metadata>
  <g
     id="layer1"
     inkscape:label="Layer 1"
     inkscape:groupmode="layer">
    <path
       style="opacity:0.9;fill:none;stroke:#ffffff;stroke-width:2;stroke-linecap:round;stroke-linejoin:round;stroke-miterlimit:4;stroke-opacity:1;stroke-dashoffset:0"
       d="m 36.47835,41.362759 0,12.3994 3.35874,0 c 0.87717,0 0.62026,1.5872 0,2.19534 l -6.71751,6.58639 c -0.62025,0.60815 -1.61891,0.60815 -2.23918,0 l -6.7175,-6.58639 c -0.62026,-0.60814 -0.87717,-2.19549 0,-2.19547 l 3.35875,7e-5 -2.2e-4,-12.39934 -10.5631,0 C 14.76542,41.362759 13,39.632179 13,37.482069 L 13,4.8810687 c 0,-2.15011 1.76542,-3.88107007 3.95833,-3.88107007 l 30.08334,0 C 49.23458,0.99999863 51,2.7309587 51,4.8810687 l 0,32.6010003 c 0,2.15011 -1.76542,3.88107 -3.95833,3.88107 z"
       id="rect3808"
       inkscape:connector-curvature="0"
       sodipodi:nodetypes="ccsssssscccsssssscc" />
  </g>
</svg>
