<?xml version="1.0" encoding="UTF-8" standalone="no"?>
<!-- Created with Inkscape (http://www.inkscape.org/) -->

<svg
   xmlns:dc="http://purl.org/dc/elements/1.1/"
   xmlns:cc="http://creativecommons.org/ns#"
   xmlns:rdf="http://www.w3.org/1999/02/22-rdf-syntax-ns#"
   xmlns:svg="http://www.w3.org/2000/svg"
   xmlns="http://www.w3.org/2000/svg"
   xmlns:sodipodi="http://sodipodi.sourceforge.net/DTD/sodipodi-0.dtd"
   xmlns:inkscape="http://www.inkscape.org/namespaces/inkscape"
   width="48px"
   height="48px"
   id="svg5428"
   version="1.1"
   inkscape:version="0.48.2 r9819"
   sodipodi:docname="New document 27">
  <defs
     id="defs5430" />
  <sodipodi:namedview
     id="base"
     pagecolor="#ffffff"
     bordercolor="#666666"
     borderopacity="1.0"
     inkscape:pageopacity="0.0"
     inkscape:pageshadow="2"
     inkscape:zoom="7"
     inkscape:cx="24"
     inkscape:cy="24"
     inkscape:current-layer="layer1"
     showgrid="true"
     inkscape:grid-bbox="true"
     inkscape:document-units="px"
     inkscape:window-width="664"
     inkscape:window-height="635"
     inkscape:window-x="619"
     inkscape:window-y="36"
     inkscape:window-maximized="0" />
  <metadata
     id="metadata5433">
    <rdf:RDF>
      <cc:Work
         rdf:about="">
        <dc:format>image/svg+xml</dc:format>
        <dc:type
           rdf:resource="http://purl.org/dc/dcmitype/StillImage" />
        <dc:title></dc:title>
      </cc:Work>
    </rdf:RDF>
  </metadata>
  <g
     id="layer1"
     inkscape:label="Layer 1"
     inkscape:groupmode="layer">
    <path
       inkscape:connector-curvature="0"
       style="fill:#ffffff;fill-opacity:1;fill-rule:evenodd;stroke:none;overflow:visible"
       id="path3213"
       d="M 23.661803,43.883234 9.9165234,36.161174 c -0.28607,-0.1599 -0.46304,-0.4628 -0.46304,-0.79232 l 0,-6.85221 c 0,-0.007 0,-0.0164 0,-0.0267 l -5.06902,-3.59812 c -0.48,-0.33922 -0.51636,-1.03705 -0.0751,-1.42229 l 6.6083896,-5.79095 -6.5623296,-5.03255 c -0.50424,-0.38524 -0.46545,-1.15818 0.0751,-1.49254 L 15.751613,4.1365042 c 0.31998,-0.19869 0.73211,-0.17934 1.03269,0.0509 l 7.21447,5.53412 7.21688,-5.53412 c 0.3006,-0.23017 0.71271,-0.24956 1.03271,-0.0509 l 11.32108,7.0169898 c 0.5406,0.33436 0.57938,1.10729 0.0751,1.49254 l -6.56476,5.03255 6.61083,5.79095 c 0.44121,0.38524 0.40485,1.08307 -0.0751,1.42229 l -5.06902,3.59572 c 0,0.009 0.001,0.0192 0.001,0.0291 l 0,6.85221 c 0,0.32711 -0.17692,0.62755 -0.46062,0.7899 l -13.53195,7.72205 c -0.27637,0.15754 -0.61576,0.1599 -0.89453,0.001 z m 0.44121,-1.8342 12.62771,-7.20597 0,-5.06889 -4.43628,3.14504 c -0.34184,0.24472 -0.80729,0.22049 -1.12484,-0.0581 l -7.17083,-6.28282 -7.16839,6.28282 c -0.31758,0.27864 -0.78303,0.30287 -1.12484,0.0581 l -4.4339,-3.14262 0,5.06162 12.83137,7.21082 z m -7.93203,-11.02702 6.0678,-5.31845 -9.79625,-6.9443 -6.0677896,5.31604 9.7962396,6.94671 z m 15.65799,0 9.79625,-6.94671 -6.0678,-5.31604 -9.79625,6.9443 6.0678,5.31845 z m -7.8302,-6.29735 9.93685,-7.04362 -9.93685,-6.15683 -9.93687,6.15683 9.93687,7.04362 z m -11.56108,-8.17517 9.67018,-5.98961 -5.93204,-4.5479598 -9.6701796,5.9920598 5.9320396,4.54551 z m 23.12457,0 5.93206,-4.54551 -9.6702,-5.9920598 -5.93204,4.5479598 9.67018,5.98961 z" />
  </g>
</svg>
