<?xml version="1.0" encoding="UTF-8" standalone="no"?>
<!-- Created with Inkscape (http://www.inkscape.org/) -->

<svg
   xmlns:dc="http://purl.org/dc/elements/1.1/"
   xmlns:cc="http://creativecommons.org/ns#"
   xmlns:rdf="http://www.w3.org/1999/02/22-rdf-syntax-ns#"
   xmlns:svg="http://www.w3.org/2000/svg"
   xmlns="http://www.w3.org/2000/svg"
   xmlns:sodipodi="http://sodipodi.sourceforge.net/DTD/sodipodi-0.dtd"
   xmlns:inkscape="http://www.inkscape.org/namespaces/inkscape"
   width="48px"
   height="48px"
   id="svg3195"
   version="1.1"
   inkscape:version="0.48.2 r9819"
   sodipodi:docname="pic.svg">
  <defs
     id="defs3197" />
  <sodipodi:namedview
     id="base"
     pagecolor="#ffffff"
     bordercolor="#666666"
     borderopacity="1.0"
     inkscape:pageopacity="0.0"
     inkscape:pageshadow="2"
     inkscape:zoom="7"
     inkscape:cx="25.428571"
     inkscape:cy="24"
     inkscape:current-layer="layer1"
     showgrid="true"
     inkscape:grid-bbox="true"
     inkscape:document-units="px"
     inkscape:window-width="723"
     inkscape:window-height="611"
     inkscape:window-x="20"
     inkscape:window-y="20"
     inkscape:window-maximized="0" />
  <metadata
     id="metadata3200">
    <rdf:RDF>
      <cc:Work
         rdf:about="">
        <dc:format>image/svg+xml</dc:format>
        <dc:type
           rdf:resource="http://purl.org/dc/dcmitype/StillImage" />
        <dc:title></dc:title>
      </cc:Work>
    </rdf:RDF>
  </metadata>
  <g
     id="layer1"
     inkscape:label="Layer 1"
     inkscape:groupmode="layer">
    <g
       id="g4649"
       transform="matrix(0.9765625,0,0,0.97014922,-632.73828,-23.646146)">
      <path
         transform="matrix(0.72727273,0,0,0.71111111,183.19091,13.232408)"
         d="m 688.75,37.237183 c 0,3.106601 -2.46243,5.625 -5.5,5.625 -3.03757,0 -5.5,-2.518399 -5.5,-5.625 0,-3.106602 2.46243,-5.625 5.5,-5.625 3.03757,0 5.5,2.518398 5.5,5.625 z"
         sodipodi:ry="5.625"
         sodipodi:rx="5.5"
         sodipodi:cy="37.237183"
         sodipodi:cx="683.25"
         id="path4641"
         style="fill:#ffffff;fill-opacity:1;fill-rule:nonzero;stroke:none"
         sodipodi:type="arc" />
      <path
         sodipodi:type="arc"
         style="fill:#ffffff;fill-opacity:1;fill-rule:nonzero;stroke:none"
         id="path4643"
         sodipodi:cx="683.25"
         sodipodi:cy="37.237183"
         sodipodi:rx="5.5"
         sodipodi:ry="5.625"
         d="m 688.75,37.237183 c 0,3.106601 -2.46243,5.625 -5.5,5.625 -3.03757,0 -5.5,-2.518399 -5.5,-5.625 0,-3.106602 2.46243,-5.625 5.5,-5.625 3.03757,0 5.5,2.518398 5.5,5.625 z"
         transform="matrix(0.72727273,0,0,0.71111111,166.79091,26.432409)" />
      <path
         transform="matrix(0.72727273,0,0,0.71111111,184.39091,32.032409)"
         d="m 688.75,37.237183 c 0,3.106601 -2.46243,5.625 -5.5,5.625 -3.03757,0 -5.5,-2.518399 -5.5,-5.625 0,-3.106602 2.46243,-5.625 5.5,-5.625 3.03757,0 5.5,2.518398 5.5,5.625 z"
         sodipodi:ry="5.625"
         sodipodi:rx="5.5"
         sodipodi:cy="37.237183"
         sodipodi:cx="683.25"
         id="path4645"
         style="fill:#ffffff;fill-opacity:1;fill-rule:nonzero;stroke:none"
         sodipodi:type="arc" />
      <path
         inkscape:connector-curvature="0"
         id="path4647"
         d="m 679.9,39.712183 -16.2,13.2 17.6,5.6"
         style="fill:none;stroke:#ffffff;stroke-width:2.05475807;stroke-linecap:butt;stroke-linejoin:miter;stroke-miterlimit:4;stroke-opacity:1;stroke-dasharray:none" />
    </g>
  </g>
</svg>
