<?xml version="1.0" encoding="UTF-8" standalone="no"?>
<!-- Created with Inkscape (http://www.inkscape.org/) -->

<svg
   xmlns:dc="http://purl.org/dc/elements/1.1/"
   xmlns:cc="http://creativecommons.org/ns#"
   xmlns:rdf="http://www.w3.org/1999/02/22-rdf-syntax-ns#"
   xmlns:svg="http://www.w3.org/2000/svg"
   xmlns="http://www.w3.org/2000/svg"
   xmlns:sodipodi="http://sodipodi.sourceforge.net/DTD/sodipodi-0.dtd"
   xmlns:inkscape="http://www.inkscape.org/namespaces/inkscape"
   width="32px"
   height="32px"
   id="svg5216"
   version="1.1"
   inkscape:version="0.48.2 r9819"
   sodipodi:docname="New document 15">
  <defs
     id="defs5218" />
  <sodipodi:namedview
     id="base"
     pagecolor="#ffffff"
     bordercolor="#666666"
     borderopacity="1.0"
     inkscape:pageopacity="0.0"
     inkscape:pageshadow="2"
     inkscape:zoom="11.197802"
     inkscape:cx="16"
     inkscape:cy="16"
     inkscape:current-layer="layer1"
     showgrid="true"
     inkscape:grid-bbox="true"
     inkscape:document-units="px"
     inkscape:window-width="729"
     inkscape:window-height="585"
     inkscape:window-x="20"
     inkscape:window-y="20"
     inkscape:window-maximized="0" />
  <metadata
     id="metadata5221">
    <rdf:RDF>
      <cc:Work
         rdf:about="">
        <dc:format>image/svg+xml</dc:format>
        <dc:type
           rdf:resource="http://purl.org/dc/dcmitype/StillImage" />
        <dc:title></dc:title>
      </cc:Work>
    </rdf:RDF>
  </metadata>
  <g
     id="layer1"
     inkscape:label="Layer 1"
     inkscape:groupmode="layer">
    <g
       transform="translate(-620.5,-311.96218)"
       id="g3845">
      <path
         sodipodi:nodetypes="sssssssss"
         inkscape:connector-curvature="0"
         id="rect3061"
         d="m 632,319.36218 9,0 c 1.662,0 3.10208,1.34114 3,3 l -0.8,13 c -0.10208,1.65886 -1.338,3 -3,3 l -7.4,0 c -1.662,0 -2.89792,-1.34114 -3,-3 l -0.8,-13 c -0.10208,-1.65886 1.338,-3 3,-3 z"
         style="fill:none;stroke:#acacac;stroke-width:2;stroke-linecap:butt;stroke-linejoin:round;stroke-miterlimit:4;stroke-opacity:1;stroke-dashoffset:0" />
      <path
         sodipodi:nodetypes="cssssccssc"
         inkscape:connector-curvature="0"
         id="rect3835"
         d="m 639.1,322.36218 -0.3,15 c -0.0111,0.55389 -0.446,1 -1,1 l -2.4,0 c -0.554,0 -0.98523,-0.4462 -1,-1 l -0.4,-15 m 0,-2.2 c -0.013,-0.55385 0.446,-2.6 1,-2.6 l 3,0 c 0.554,0 1.00652,2.04604 1,2.6"
         style="fill:none;stroke:#acacac;stroke-width:2;stroke-linecap:butt;stroke-linejoin:round;stroke-miterlimit:4;stroke-opacity:1;stroke-dashoffset:0" />
      <path
         sodipodi:nodetypes="cc"
         inkscape:connector-curvature="0"
         id="path3843"
         d="m 629,322.36218 15,0"
         style="fill:none;stroke:#acacac;stroke-width:2;stroke-linecap:butt;stroke-linejoin:miter;stroke-miterlimit:4;stroke-opacity:1;stroke-dasharray:none" />
    </g>
  </g>
</svg>
